<svg id="Layer_1" data-name="Layer 1" xmlns="http://www.w3.org/2000/svg" viewBox="0 0 105.04 44.76"><defs><style>.cls-1{fill:#15142a;}</style></defs><title>elliot</title><path class="cls-1" d="M75.42,40.4a3.38,3.38,0,0,0,6.77,0,3.38,3.38,0,1,0-6.77,0M70.08,18.66H65.44v2.67a2.74,2.74,0,0,1-2.94,3h-1v4.56H65v8.86c0,3.68,2.32,5.88,6,5.88a7.61,7.61,0,0,0,2.9-.47V38.93a7.5,7.5,0,0,1-1.59.15c-1.47,0-2.24-.54-2.24-2.21v-8h3.83V24.34H70.08ZM46.26,34a5,5,0,1,1,9.9,0,5,5,0,1,1-9.9,0m-5,0a10,10,0,1,0,10-9.79,9.74,9.74,0,0,0-10,9.79m-7.16-15.9a3.17,3.17,0,1,0,3.17-3.21,3.18,3.18,0,0,0-3.17,3.21m5.76,6.23H34.69v19h5.14Zm-7.31-8.43h-5V43.37h5Zm-7,0h-5V43.37h5ZM6.11,31.58a4.07,4.07,0,0,1,4-3.29,3.74,3.74,0,0,1,3.71,3.29Zm9.55,6a6.64,6.64,0,0,1-4.72,2.17,4.92,4.92,0,0,1-5.07-4.45h13A8.25,8.25,0,0,0,19,33.82c0-5.22-3.67-9.59-8.86-9.59C4.56,24.23,1,28.79,1,34c0,5.88,4.22,9.75,9.82,9.75a10.18,10.18,0,0,0,7.7-3.36Z"/><path class="cls-1" d="M.95,1A.64.64,0,0,1,1.11.46.57.57,0,0,1,1.52.31a.57.57,0,0,1,.4.16A.63.63,0,0,1,2.09,1a.64.64,0,0,1-.17.49.57.57,0,0,1-.4.16.56.56,0,0,1-.41-.16A.66.66,0,0,1,.95,1ZM2,9.1H1V2.69H2Z"/><path class="cls-1" d="M8.44,9.1V5a1.67,1.67,0,0,0-.36-1.17A1.45,1.45,0,0,0,7,3.4a1.84,1.84,0,0,0-1.47.54A2.75,2.75,0,0,0,5,5.73V9.1h-1V2.69h.79L5,3.57h0a2,2,0,0,1,.84-.73,2.72,2.72,0,0,1,1.2-.26,2.43,2.43,0,0,1,1.74.56,2.38,2.38,0,0,1,.58,1.79V9.1Z"/><path class="cls-1" d="M17.5,9.21A2.77,2.77,0,0,1,16.35,9a2.15,2.15,0,0,1-.87-.71h-.07a8.58,8.58,0,0,1,.07,1.06V12h-1V2.69h.79l.13.88h0a2.25,2.25,0,0,1,.87-.76,2.65,2.65,0,0,1,1.14-.23,2.37,2.37,0,0,1,2,.87,3.84,3.84,0,0,1,.69,2.44,3.81,3.81,0,0,1-.7,2.45A2.37,2.37,0,0,1,17.5,9.21ZM17.36,3.4a1.72,1.72,0,0,0-1.42.54,2.8,2.8,0,0,0-.45,1.73v.22a3.2,3.2,0,0,0,.45,1.93,1.71,1.71,0,0,0,1.44.58,1.5,1.5,0,0,0,1.3-.67,3.19,3.19,0,0,0,.47-1.85A3.07,3.07,0,0,0,18.68,4,1.55,1.55,0,0,0,17.36,3.4Z"/><path class="cls-1" d="M25.79,9.1l-.19-.91h0a2.7,2.7,0,0,1-1,.82,2.91,2.91,0,0,1-1.19.21,2.14,2.14,0,0,1-1.49-.49,1.79,1.79,0,0,1-.54-1.4q0-1.94,3.1-2l1.09,0v-.4a1.62,1.62,0,0,0-.32-1.11,1.33,1.33,0,0,0-1-.36,4.23,4.23,0,0,0-1.81.49l-.3-.74a4.56,4.56,0,0,1,1-.4,4.49,4.49,0,0,1,1.13-.15,2.44,2.44,0,0,1,1.7.51,2.12,2.12,0,0,1,.55,1.63V9.1ZM23.6,8.41A2,2,0,0,0,25,7.92a1.84,1.84,0,0,0,.52-1.39V5.95l-1,0a3.53,3.53,0,0,0-1.67.36,1.08,1.08,0,0,0-.51,1,1,1,0,0,0,.32.8A1.32,1.32,0,0,0,23.6,8.41Z"/><path class="cls-1" d="M31.43,2.57a3.79,3.79,0,0,1,.77.07l-.13.9a3.3,3.3,0,0,0-.7-.09A1.71,1.71,0,0,0,30,4.09a2.3,2.3,0,0,0-.55,1.57V9.1h-1V2.69h.8l.11,1.19h0a2.81,2.81,0,0,1,.86-1A1.93,1.93,0,0,1,31.43,2.57Z"/><path class="cls-1" d="M35.47,8.41a3.16,3.16,0,0,0,.5,0l.38-.08V9a1.76,1.76,0,0,1-.46.13,3.54,3.54,0,0,1-.55,0q-1.86,0-1.86-2V3.44h-.92V3l.92-.4.41-1.37h.56V2.69H36.3v.75H34.44V7.21a1.3,1.3,0,0,0,.27.89A1,1,0,0,0,35.47,8.41Z"/><path class="cls-1" d="M42,9.1V5a1.67,1.67,0,0,0-.36-1.17,1.45,1.45,0,0,0-1.12-.39,1.84,1.84,0,0,0-1.47.54,2.75,2.75,0,0,0-.47,1.79V9.1h-1V2.69h.79l.16.88h0a2,2,0,0,1,.84-.73,2.72,2.72,0,0,1,1.2-.26,2.43,2.43,0,0,1,1.74.56A2.38,2.38,0,0,1,43,4.92V9.1Z"/><path class="cls-1" d="M47.68,9.21a2.94,2.94,0,0,1-2.24-.86,3.35,3.35,0,0,1-.82-2.4,3.72,3.72,0,0,1,.76-2.46,2.53,2.53,0,0,1,2-.91,2.42,2.42,0,0,1,1.91.79A3,3,0,0,1,50,5.45v.61H45.62a2.54,2.54,0,0,0,.57,1.71,2,2,0,0,0,1.52.58,5.16,5.16,0,0,0,2-.43V8.8a5.13,5.13,0,0,1-1,.32A5.46,5.46,0,0,1,47.68,9.21Zm-.26-5.83a1.58,1.58,0,0,0-1.23.5,2.32,2.32,0,0,0-.54,1.39H49a2.13,2.13,0,0,0-.41-1.41A1.44,1.44,0,0,0,47.42,3.38Z"/><path class="cls-1" d="M54.61,2.57a3.79,3.79,0,0,1,.77.07l-.13.9a3.28,3.28,0,0,0-.7-.09,1.71,1.71,0,0,0-1.33.63,2.3,2.3,0,0,0-.55,1.57V9.1h-1V2.69h.8l.11,1.19h0a2.81,2.81,0,0,1,.86-1A1.93,1.93,0,0,1,54.61,2.57Z"/><path class="cls-1" d="M60.71,7.35A1.61,1.61,0,0,1,60,8.73a3.13,3.13,0,0,1-1.87.48,4.06,4.06,0,0,1-2-.4v-.9a4.82,4.82,0,0,0,1,.37,4.13,4.13,0,0,0,1,.13,2.31,2.31,0,0,0,1.17-.24.84.84,0,0,0,.08-1.38,5.13,5.13,0,0,0-1.27-.63,6.81,6.81,0,0,1-1.27-.58A1.73,1.73,0,0,1,56.35,5a1.47,1.47,0,0,1-.18-.75A1.44,1.44,0,0,1,56.81,3a3,3,0,0,1,1.75-.45,5.11,5.11,0,0,1,2,.42l-.34.79a4.64,4.64,0,0,0-1.75-.4,2,2,0,0,0-1,.22.67.67,0,0,0-.35.6.72.72,0,0,0,.13.44,1.29,1.29,0,0,0,.42.34,9.49,9.49,0,0,0,1.12.47,4.2,4.2,0,0,1,1.54.84A1.48,1.48,0,0,1,60.71,7.35Z"/><path class="cls-1" d="M66.67,9.1V5a1.67,1.67,0,0,0-.36-1.17A1.45,1.45,0,0,0,65.2,3.4a1.83,1.83,0,0,0-1.48.55,2.79,2.79,0,0,0-.46,1.8V9.1h-1V0h1V2.75a6,6,0,0,1,0,.82h.06a2,2,0,0,1,.82-.73,2.66,2.66,0,0,1,1.21-.27,2.47,2.47,0,0,1,1.76.56,2.35,2.35,0,0,1,.59,1.77V9.1Z"/><path class="cls-1" d="M69.56,1a.65.65,0,0,1,.16-.49.61.61,0,0,1,.81,0A.64.64,0,0,1,70.7,1a.65.65,0,0,1-.17.49.57.57,0,0,1-.4.16.56.56,0,0,1-.41-.16A.66.66,0,0,1,69.56,1ZM70.61,9.1h-1V2.69h1Z"/><path class="cls-1" d="M75.65,9.21A2.78,2.78,0,0,1,74.5,9a2.16,2.16,0,0,1-.87-.71h-.07a8.58,8.58,0,0,1,.07,1.06V12h-1V2.69h.79l.13.88h0a2.26,2.26,0,0,1,.87-.76,2.65,2.65,0,0,1,1.14-.23,2.37,2.37,0,0,1,2,.87,3.84,3.84,0,0,1,.69,2.44,3.81,3.81,0,0,1-.7,2.45A2.37,2.37,0,0,1,75.65,9.21ZM75.51,3.4a1.72,1.72,0,0,0-1.42.54,2.8,2.8,0,0,0-.45,1.73v.22a3.21,3.21,0,0,0,.45,1.93,1.71,1.71,0,0,0,1.44.58,1.5,1.5,0,0,0,1.3-.67,3.19,3.19,0,0,0,.47-1.85A3.07,3.07,0,0,0,76.83,4,1.55,1.55,0,0,0,75.51,3.4Z"/><path class="cls-1" d="M88.34,9.1,87.17,5.34q-.11-.34-.42-1.57h0q-.23,1-.41,1.58L85.09,9.1H84L82.22,2.69h1l.94,3.68a14.78,14.78,0,0,1,.37,1.7h0q.06-.33.21-.86t.25-.84l1.17-3.68h1.05l1.15,3.68a12.36,12.36,0,0,1,.44,1.69h0A6.2,6.2,0,0,1,89,7.41q.1-.44,1.22-4.72h1L89.5,9.1Z"/><path class="cls-1" d="M92.34,1a.65.65,0,0,1,.16-.49.61.61,0,0,1,.81,0,.64.64,0,0,1,.17.49.65.65,0,0,1-.17.49.57.57,0,0,1-.4.16.56.56,0,0,1-.41-.16A.66.66,0,0,1,92.34,1ZM93.4,9.1h-1V2.69h1Z"/><path class="cls-1" d="M97.52,8.41a3.17,3.17,0,0,0,.5,0l.38-.08V9a1.78,1.78,0,0,1-.46.13,3.54,3.54,0,0,1-.55,0q-1.86,0-1.86-2V3.44h-.92V3l.92-.4.41-1.37h.56V2.69h1.86v.75H96.49V7.21a1.3,1.3,0,0,0,.28.89A1,1,0,0,0,97.52,8.41Z"/><path class="cls-1" d="M104.06,9.1V5a1.67,1.67,0,0,0-.36-1.17,1.45,1.45,0,0,0-1.12-.39,1.83,1.83,0,0,0-1.48.55,2.79,2.79,0,0,0-.46,1.8V9.1h-1V0h1V2.75a6,6,0,0,1,0,.82h.06a2,2,0,0,1,.82-.73,2.66,2.66,0,0,1,1.21-.27,2.47,2.47,0,0,1,1.76.56A2.35,2.35,0,0,1,105,4.92V9.1Z"/></svg>