<?xml version="1.0" encoding="utf-8"?>
<!-- Generator: Adobe Illustrator 21.1.0, SVG Export Plug-In . SVG Version: 6.00 Build 0)  -->
<svg version="1.1" id="Layer_1" xmlns="http://www.w3.org/2000/svg" xmlns:xlink="http://www.w3.org/1999/xlink" x="0px" y="0px"
	 viewBox="0 0 53 50" style="enable-background:new 0 0 53 50;" xml:space="preserve">
<style type="text/css">
	.st0{fill:#FFFFFF;}
</style>
<g>
	<path class="st0" d="M27,1.6C13.9,1.6,3.3,12.2,3.3,25.3C3.3,38.4,13.9,49,27,49C40,49,50.7,38.4,50.7,25.3
		C50.7,12.2,40,1.6,27,1.6z M27,46.9c-11.9,0-21.6-9.7-21.6-21.6C5.4,13.4,15.1,3.7,27,3.7c11.9,0,21.6,9.7,21.6,21.6
		C48.6,37.2,38.9,46.9,27,46.9z"/>
	<path class="st0" d="M40,24.6C40,24.6,40,24.6,40,24.6L28.6,36c0,0,0,0,0,0c-0.5,0.5-1.2,0.8-2,0.8c-0.8,0-1.5-0.3-2-0.8l-8.8-8.7
		c-0.5-0.5-0.8-1.2-0.8-2c0-0.8,0.3-1.5,0.8-2l8.7-8.8c0.5-0.5,1.2-0.8,2-0.8c0.8,0,1.5,0.3,2,0.8l5.2,5.1c0.5,0.5,1.2,0.5,1.7,0
		c0,0,0,0,0,0c0.5-0.5,0.5-1.2,0-1.7l-5.2-5.1c-1-1-2.3-1.5-3.7-1.5c-1.4,0-2.7,0.6-3.6,1.5c0,0,0,0,0,0l-8.8,8.8c-2,2-2,5.3,0,7.3
		l8.8,8.7c1,1,2.3,1.5,3.7,1.5c1.4,0,2.7-0.5,3.7-1.5c0,0,0,0,0,0l11.3-11.4c0.5-0.5,0.5-1.2,0-1.7C41.1,24.1,40.4,24.1,40,24.6z"/>
	<path class="st0" d="M24.7,23c-1.2,1.2-1.2,3.1,0,4.2c1.2,1.2,3,1.1,4.2,0c0,0,0,0,0,0c0.6-0.6,0.9-1.3,0.9-2.1
		c0-0.8-0.3-1.5-0.9-2.1C27.8,21.8,25.9,21.8,24.7,23z M28,26.5L28,26.5L28,26.5C28,26.5,28,26.5,28,26.5z"/>
</g>
</svg>
