<svg id="Layer_1" data-name="Layer 1" xmlns="http://www.w3.org/2000/svg" xmlns:xlink="http://www.w3.org/1999/xlink" viewBox="0 0 238.37 238.37"><defs><style>.cls-1{fill:#449935;}.cls-2{fill:url(#linear-gradient);}.cls-3{fill:#fff;}</style><linearGradient id="linear-gradient" x1="78.86" y1="162.78" x2="80.3" y2="159.41" gradientTransform="matrix(65, 0, 0, -65, -5067.97, 10556.35)" gradientUnits="userSpaceOnUse"><stop offset="0" stop-color="#fff"/><stop offset="1" stop-color="#7fba28" stop-opacity="0"/></linearGradient></defs><title>green-down</title><path class="cls-1" d="M119.19,0A119.19,119.19,0,1,1,0,119.19,119.19,119.19,0,0,1,119.19,0Z"/><path class="cls-2" d="M119.19,0A119.19,119.19,0,1,1,0,119.19,119.19,119.19,0,0,1,119.19,0Z"/><path class="cls-3" d="M150.92,129.25h0a6.27,6.27,0,0,0-8.86,0l-16.61,16.61V77.49a6.27,6.27,0,0,0-6.27-6.27h0a6.27,6.27,0,0,0-6.27,6.27v68.15L96.31,129a6.27,6.27,0,0,0-8.86,0h0a6.27,6.27,0,0,0,0,8.86l27.41,27.41a6.27,6.27,0,0,0,8.86,0l27.2-27.2A6.27,6.27,0,0,0,150.92,129.25Z"/></svg>