<svg id="Layer_1" data-name="Layer 1" xmlns="http://www.w3.org/2000/svg" viewBox="0 0 540 414"><defs><style>.cls-1{fill:#4a4964;}.cls-2{fill:#15142a;}</style></defs><title>ipad-rotate</title><path class="cls-1" d="M0,392.91V20.47A20.49,20.49,0,0,1,20.51,0H519.26a20.49,20.49,0,0,1,20.52,20.46V392.91a20.49,20.49,0,0,1-20.52,20.46H20.51A20.49,20.49,0,0,1,0,392.91Z"/><path class="cls-2" d="M51.3,370.4V43H490.52V370.4Z"/><path class="cls-2" d="M22.57,206.69a4.1,4.1,0,1,1,4.1,4.09A4.1,4.1,0,0,1,22.57,206.69Z"/><path class="cls-2" d="M498.73,206.69A14.37,14.37,0,1,1,513.1,221,14.35,14.35,0,0,1,498.73,206.69Z"/><path class="cls-1" d="M277.48,284.19,275.79,267c-1.62.16-3.28.24-4.92.24A49.33,49.33,0,0,1,221.56,218l.2-.27-.26-.94a55.34,55.34,0,0,1,.52-6.64,25.18,25.18,0,0,1,1.53-6.63l.28-.37.39-1.15a49.35,49.35,0,0,1,78.38-21.69l-14.39,5.74,40.6,32,7.42-51.09-16.08,6.41a66.61,66.61,0,0,0-112,22.46,38.87,38.87,0,0,0-3.23,12.29,74.44,74.44,0,0,0-.64,8.57q0,1,.06,1.81a66.62,66.62,0,0,0,66.59,66.06C273.08,284.51,275.3,284.4,277.48,284.19Z"/></svg>