<svg id="Layer_1" data-name="Layer 1" xmlns="http://www.w3.org/2000/svg" xmlns:xlink="http://www.w3.org/1999/xlink" viewBox="0 0 300 300"><defs><style>.cls-1{fill:url(#linear-gradient);}.cls-2{fill:url(#linear-gradient-2);}.cls-3{fill:url(#linear-gradient-3);}</style><linearGradient id="linear-gradient" x1="151.7" y1="5.52" x2="151.7" y2="340.15" gradientUnits="userSpaceOnUse"><stop offset="0" stop-color="#fff"/><stop offset="0.43" stop-color="#fff"/><stop offset="0.83" stop-color="#fff" stop-opacity="0"/><stop offset="1" stop-color="#fff" stop-opacity="0"/></linearGradient><linearGradient id="linear-gradient-2" x1="153.4" y1="5.52" x2="153.4" y2="340.15" xlink:href="#linear-gradient"/><linearGradient id="linear-gradient-3" x1="150.66" y1="5.52" x2="150.66" y2="340.15" xlink:href="#linear-gradient"/></defs><title>logo-icon</title><path class="cls-1" d="M151.7,6A143.1,143.1,0,0,0,8.7,149c0,78.8,64.2,143,143,143a143.1,143.1,0,0,0,143-143C294.7,70.1,230.5,6,151.7,6Zm0,273.5c-72,0-130.5-58.6-130.5-130.5S79.8,18.4,151.7,18.4,282.3,77,282.3,149,223.7,279.5,151.7,279.5Z"/><path class="cls-2" d="M230,144.8h0l-68.5,68.5a.1.1,0,0,1-.1.1,17,17,0,0,1-23.9,0L84.1,160.6a16.56,16.56,0,0,1-5-11.9,16.86,16.86,0,0,1,4.9-12l52.8-53.4a16.9,16.9,0,0,1,23.9-.1l31.4,31.1a7.24,7.24,0,0,0,10.2,0h0a7.24,7.24,0,0,0,0-10.2l-31.4-31a31,31,0,0,0-44.1.4l-.1.1L73.8,126.8a31.17,31.17,0,0,0,.1,44.2l53.4,52.7a31.55,31.55,0,0,0,22.3,9.1,31,31,0,0,0,22.1-9.2l.1-.1L240,154.7a7.15,7.15,0,0,0,0-10.2A6.92,6.92,0,0,0,230,144.8Z"/><path class="cls-3" d="M137.8,134.8a18,18,0,1,0,25.5,25.3l.1-.1a17.17,17.17,0,0,0,5.4-12.7,17.37,17.37,0,0,0-5.2-12.6A18.38,18.38,0,0,0,137.8,134.8ZM157.7,156Z"/></svg>