<?xml version="1.0" encoding="utf-8"?>
<!-- Generator: Adobe Illustrator 21.0.0, SVG Export Plug-In . SVG Version: 6.00 Build 0)  -->
<svg version="1.1" id="Layer_1" xmlns="http://www.w3.org/2000/svg" xmlns:xlink="http://www.w3.org/1999/xlink" x="0px" y="0px"
	 viewBox="0 0 300 300" style="enable-background:new 0 0 300 300;" xml:space="preserve">
<style type="text/css">
	.st0{fill:#FFFFFF;}
</style>
<g>
	<path class="st0" d="M151.7,6C72.8,6,8.7,70.1,8.7,149c0,78.8,64.2,143,143,143c78.9,0,143-64.1,143-143
		C294.7,70.1,230.5,6,151.7,6z M151.7,279.5c-72,0-130.5-58.6-130.5-130.5c0-72,58.6-130.6,130.5-130.6c72,0,130.6,58.6,130.6,130.6
		C282.2,221,223.7,279.5,151.7,279.5z"/>
	<path class="st0" d="M230,144.8C230,144.8,230,144.8,230,144.8l-68.5,68.5c0,0,0,0.1-0.1,0.1c-3.1,3.1-7.4,4.9-11.9,4.9
		c-4.5,0-8.8-1.7-12-4.9l-53.4-52.8c-3.2-3.1-5-7.4-5-11.9c0-4.5,1.7-8.8,4.9-12l52.8-53.4c3.2-3.2,7.4-5,11.9-5
		c4.6,0,8.8,1.7,12,4.9l31.4,31.1c2.8,2.8,7.4,2.8,10.2,0c0,0,0,0,0,0c2.8-2.8,2.8-7.4,0-10.2l-31.4-31c-5.9-5.9-13.8-9-22.2-9
		c-8.4,0-16,3.5-21.9,9.4c0,0-0.1,0.1-0.1,0.1l-52.9,53.2C61.6,139,61.6,158.8,73.9,171l53.4,52.7c6,5.9,13.9,9.1,22.3,9.1
		c8.4,0,16.2-3.3,22.1-9.2c0,0,0.1-0.1,0.1-0.1l68.2-68.8c2.8-2.9,2.9-7.4,0-10.2C237.2,141.7,232.8,141.9,230,144.8z"/>
	<path class="st0" d="M137.8,134.8c-7,7.1-7.1,18.6,0.1,25.6c7.1,7,18.4,6.7,25.4-0.3c0,0,0.1-0.1,0.1-0.1c3.5-3.4,5.5-7.9,5.4-12.7
		c0-4.9-1.8-9.2-5.2-12.6C156.4,127.7,144.9,127.7,137.8,134.8z M157.7,156L157.7,156L157.7,156L157.7,156z"/>
</g>
</svg>
